<?xml version="1.0" standalone="no"?>
<!DOCTYPE svg PUBLIC "-//W3C//DTD SVG 20010904//EN"
 "http://www.w3.org/TR/2001/REC-SVG-20010904/DTD/svg10.dtd">
<svg version="1.0" xmlns="http://www.w3.org/2000/svg"
 width="159px" height="70px" viewBox="0 0 346.000000 88.000000"
 preserveAspectRatio="xMidYMid meet">

<g transform="translate(0.000000,88.000000) scale(0.100000,-0.100000)"
fill='#3e4959' stroke="none">
<path d="M287 868 c-14 -11 -17 -35 -19 -133 l-3 -120 -123 -5 c-94 -4 -125
-8 -132 -20 -5 -8 -10 -50 -10 -92 l0 -78 43 0 c176 0 350 -165 365 -345 l5
-65 83 0 c72 0 85 3 94 19 5 11 10 72 10 135 l0 116 116 0 c63 0 124 5 135 10
17 10 19 22 19 148 0 95 -4 143 -12 155 -11 14 -35 17 -133 19 l-120 3 -3 120
c-2 98 -5 122 -19 133 -11 8 -59 12 -148 12 -89 0 -137 -4 -148 -12z m281
-155 l3 -133 122 0 c67 0 128 -4 135 -8 9 -7 12 -40 10 -133 l-3 -124 -132 -3
-132 -3 -3 -127 -3 -127 -56 -3 -57 -3 -12 65 c-15 82 -63 165 -133 230 -61
58 -131 92 -216 107 l-61 11 0 53 c0 39 4 54 16 59 9 3 69 6 135 6 l119 0 0
119 c0 66 3 127 6 135 5 14 24 16 133 14 l126 -3 3 -132z"/>
<path d="M1534 627 c-2 -7 -3 -85 -2 -172 3 -152 4 -160 23 -160 17 0 20 8 23
58 l3 57 72 0 c83 0 131 22 148 68 21 53 -8 128 -59 151 -34 16 -201 14 -208
-2z m200 -39 c36 -33 39 -95 6 -128 -16 -16 -33 -20 -90 -20 l-70 0 0 85 0 85
64 0 c53 0 69 -4 90 -22z"/>
<path d="M1988 558 c-19 -46 -48 -116 -63 -155 -14 -40 -31 -75 -36 -79 -19
-11 -9 -35 13 -32 15 2 26 16 37 46 18 49 30 54 121 50 l65 -3 23 -47 c12 -27
29 -48 37 -48 8 0 15 3 15 8 0 10 -54 151 -81 210 -12 26 -30 66 -40 90 -29
66 -49 57 -91 -40z m109 -92 c7 -16 13 -33 13 -38 0 -4 -31 -8 -70 -8 l-70 0
10 25 c6 15 22 51 37 82 l26 57 21 -45 c11 -24 26 -57 33 -73z"/>
<path d="M2404 626 c-18 -8 -46 -34 -63 -59 -27 -39 -31 -55 -31 -108 0 -105
55 -167 158 -176 46 -4 66 0 102 19 l45 23 3 73 3 72 -71 0 c-54 0 -70 -3 -70
-14 0 -11 15 -16 53 -18 l52 -3 3 -37 c6 -68 -70 -106 -152 -77 -55 20 -79 56
-84 128 -7 100 43 157 138 155 32 0 57 -8 78 -23 28 -20 33 -21 38 -6 19 49
-124 85 -202 51z"/>
<path d="M2800 465 l0 -175 110 0 c90 0 110 3 110 15 0 11 -19 15 -92 17 l-93
3 -3 63 -3 62 86 0 c77 0 86 2 83 18 -3 14 -17 18 -83 22 l-80 5 0 55 0 55 93
3 c73 2 92 6 92 17 0 12 -20 15 -110 15 l-110 0 0 -175z"/>
<path d="M3170 464 l0 -176 88 4 c142 7 196 54 197 173 0 118 -68 175 -208
175 l-77 0 0 -176z m152 136 c20 -6 50 -26 67 -46 26 -29 31 -43 31 -85 0 -98
-57 -149 -167 -149 l-43 0 0 138 c0 76 3 142 7 145 10 10 63 8 105 -3z"/>
<path d="M1150 430 c0 -86 3 -103 20 -120 25 -25 62 -34 103 -25 17 4 49 6 70
6 l37 -1 0 120 c0 113 -1 120 -20 120 -18 0 -20 -7 -20 -85 0 -78 -2 -88 -25
-110 -16 -17 -35 -25 -57 -25 -62 0 -78 29 -78 139 0 65 -3 81 -15 81 -12 0
-15 -18 -15 -100z"/>
<path d="M0 296 c0 -11 9 -16 33 -16 40 0 125 -41 163 -78 33 -33 74 -122 74
-162 0 -20 5 -30 15 -30 22 0 19 75 -4 126 -42 93 -132 161 -226 171 -47 5
-55 3 -55 -11z"/>
<path d="M0 151 c0 -14 10 -20 39 -25 47 -7 81 -45 81 -87 0 -19 5 -29 15 -29
26 0 19 64 -12 101 -43 51 -123 77 -123 40z"/>
</g>
</svg>
